<mxfile host="app.diagrams.net" modified="2023-12-09T17:42:51.328Z" agent="Mozilla/5.0 (Windows NT 10.0; Win64; x64; rv:120.0) Gecko/20100101 Firefox/120.0" etag="qtzPlQpJxnc0TeHDimAv" version="22.1.7" type="google">
  <diagram id="z16yoRj-sMD6OyZfb9VC" name="Страница — 1">
    <mxGraphModel dx="1202" dy="2715" grid="1" gridSize="10" guides="1" tooltips="1" connect="1" arrows="1" fold="1" page="0" pageScale="1" pageWidth="827" pageHeight="1169" background="none" math="0" shadow="0">
      <root>
        <mxCell id="0" />
        <mxCell id="1" parent="0" />
        <mxCell id="node10" value="&lt;p style=&quot;margin:0px;margin-top:4px;text-align:center;&quot;&gt;&lt;b&gt;COMPANY&lt;/b&gt;&lt;/p&gt;&lt;hr size=&quot;1&quot;/&gt;&lt;p style=&quot;margin:0 0 0 4px;line-height:1.6;&quot;&gt; NAME: text&lt;br/&gt; BANK: text&lt;br/&gt; SCHET: text&lt;br/&gt; DIREKTOR: text&lt;br/&gt; GLBUH: text&lt;/p&gt;&lt;hr size=&quot;1&quot;/&gt;&lt;p style=&quot;margin:0 0 0 4px;line-height:1.6;&quot;&gt; ID: int&lt;/p&gt;" style="verticalAlign=top;align=left;overflow=fill;fontSize=14;fontFamily=Helvetica;html=1;rounded=0;shadow=0;comic=0;labelBackgroundColor=none;strokeWidth=1;" parent="1" vertex="1">
          <mxGeometry x="395.5" y="-1762" width="115" height="165" as="geometry" />
        </mxCell>
        <mxCell id="node4" value="&lt;p style=&quot;margin:0px;margin-top:4px;text-align:center;&quot;&gt;&lt;b&gt;DOLG&lt;/b&gt;&lt;/p&gt;&lt;hr size=&quot;1&quot;/&gt;&lt;p style=&quot;margin:0 0 0 4px;line-height:1.6;&quot;&gt; NAME: text&lt;br/&gt; OKLAD: text&lt;br/&gt; PREM: text&lt;/p&gt;" style="verticalAlign=top;align=left;overflow=fill;fontSize=14;fontFamily=Helvetica;html=1;rounded=0;shadow=0;comic=0;labelBackgroundColor=none;strokeWidth=1;" parent="1" vertex="1">
          <mxGeometry x="395.5" y="-1900" width="96" height="106" as="geometry" />
        </mxCell>
        <mxCell id="node2" value="&lt;p style=&quot;margin:0px;margin-top:4px;text-align:center;&quot;&gt;&lt;b&gt;GRAPH&lt;/b&gt;&lt;/p&gt;&lt;hr size=&quot;1&quot;/&gt;&lt;p style=&quot;margin:0 0 0 4px;line-height:1.6;&quot;&gt; NAME: text&lt;br/&gt; BEG: text&lt;br/&gt; END: text&lt;br/&gt; OBED: text&lt;/p&gt;" style="verticalAlign=top;align=left;overflow=fill;fontSize=14;fontFamily=Helvetica;html=1;rounded=0;shadow=0;comic=0;labelBackgroundColor=none;strokeWidth=1;" parent="1" vertex="1">
          <mxGeometry x="40" y="-1750" width="90" height="141" as="geometry" />
        </mxCell>
        <mxCell id="node3" value="&lt;p style=&quot;margin:0px;margin-top:4px;text-align:center;&quot;&gt;&lt;b&gt;LOG&lt;/b&gt;&lt;/p&gt;&lt;hr size=&quot;1&quot;/&gt;&lt;p style=&quot;margin:0 0 0 4px;line-height:1.6;&quot;&gt; log: varchar(500)&lt;/p&gt;" style="verticalAlign=top;align=left;overflow=fill;fontSize=14;fontFamily=Helvetica;html=1;rounded=0;shadow=0;comic=0;labelBackgroundColor=none;strokeWidth=1;" parent="1" vertex="1">
          <mxGeometry x="-30" y="-1270" width="118" height="58" as="geometry" />
        </mxCell>
        <mxCell id="node1" value="&lt;p style=&quot;margin:0px;margin-top:4px;text-align:center;&quot;&gt;&lt;b&gt;POST&lt;/b&gt;&lt;/p&gt;&lt;hr size=&quot;1&quot;/&gt;&lt;p style=&quot;margin:0 0 0 4px;line-height:1.6;&quot;&gt; NAME: text&lt;br/&gt; ADDRES: text&lt;br/&gt; DOP: text&lt;/p&gt;&lt;hr size=&quot;1&quot;/&gt;&lt;p style=&quot;margin:0 0 0 4px;line-height:1.6;&quot;&gt; ID: integer&lt;/p&gt;" style="verticalAlign=top;align=left;overflow=fill;fontSize=14;fontFamily=Helvetica;html=1;rounded=0;shadow=0;comic=0;labelBackgroundColor=none;strokeWidth=1;" parent="1" vertex="1">
          <mxGeometry x="360" y="-1477" width="103" height="151" as="geometry" />
        </mxCell>
        <mxCell id="node8" value="&lt;p style=&quot;margin:0px;margin-top:4px;text-align:center;&quot;&gt;&lt;b&gt;UTIL&lt;/b&gt;&lt;/p&gt;&lt;hr size=&quot;1&quot;&gt;&lt;p style=&quot;margin:0 0 0 4px;line-height:1.6;&quot;&gt; TOVID: text&lt;br&gt; NUM: integer&lt;br&gt; SKLADID: text&lt;br&gt; DT: text&lt;br&gt; ZAKID: text&lt;br&gt; price: real&lt;br&gt; summa: real&lt;/p&gt;&lt;hr size=&quot;1&quot;&gt;&lt;p style=&quot;margin:0 0 0 4px;line-height:1.6;&quot;&gt; ID: integer&lt;/p&gt;" style="verticalAlign=top;align=left;overflow=fill;fontSize=14;fontFamily=Helvetica;html=1;rounded=0;shadow=0;comic=0;labelBackgroundColor=none;strokeWidth=1;" parent="1" vertex="1">
          <mxGeometry x="103" y="-1359" width="107" height="209" as="geometry" />
        </mxCell>
        <mxCell id="node5" value="&lt;p style=&quot;margin:0px;margin-top:4px;text-align:center;&quot;&gt;&lt;b&gt;SKLAD&lt;/b&gt;&lt;/p&gt;&lt;hr size=&quot;1&quot;/&gt;&lt;p style=&quot;margin:0 0 0 4px;line-height:1.6;&quot;&gt; NAME: text&lt;br/&gt; ADDRES: text&lt;br/&gt; DOP: text&lt;/p&gt;&lt;hr size=&quot;1&quot;/&gt;&lt;p style=&quot;margin:0 0 0 4px;line-height:1.6;&quot;&gt; ID: integer&lt;/p&gt;" style="verticalAlign=top;align=left;overflow=fill;fontSize=14;fontFamily=Helvetica;html=1;rounded=0;shadow=0;comic=0;labelBackgroundColor=none;strokeWidth=1;" parent="1" vertex="1">
          <mxGeometry x="210" y="-1640" width="103" height="141" as="geometry" />
        </mxCell>
        <mxCell id="node13" value="&lt;p style=&quot;margin:0px;margin-top:4px;text-align:center;&quot;&gt;&lt;b&gt;SOTRUD&lt;/b&gt;&lt;/p&gt;&lt;hr size=&quot;1&quot;/&gt;&lt;p style=&quot;margin:0 0 0 4px;line-height:1.6;&quot;&gt; FAM: text&lt;br/&gt; NAME: text&lt;br/&gt; OTCH: text&lt;br/&gt; DOLG: text&lt;br/&gt; GRAPH: text&lt;/p&gt;" style="verticalAlign=top;align=left;overflow=fill;fontSize=14;fontFamily=Helvetica;html=1;rounded=0;shadow=0;comic=0;labelBackgroundColor=none;strokeWidth=1;" parent="1" vertex="1">
          <mxGeometry x="190" y="-1889" width="97" height="151" as="geometry" />
        </mxCell>
        <mxCell id="node6" value="&lt;p style=&quot;margin:0px;margin-top:4px;text-align:center;&quot;&gt;&lt;b&gt;STATUS&lt;/b&gt;&lt;/p&gt;&lt;hr size=&quot;1&quot;/&gt;&lt;p style=&quot;margin:0 0 0 4px;line-height:1.6;&quot;&gt; id: integer&lt;br/&gt; NAME: varchar(100)&lt;/p&gt;" style="verticalAlign=top;align=left;overflow=fill;fontSize=14;fontFamily=Helvetica;html=1;rounded=0;shadow=0;comic=0;labelBackgroundColor=none;strokeWidth=1;" parent="1" vertex="1">
          <mxGeometry x="395.5" y="-1581" width="135" height="82" as="geometry" />
        </mxCell>
        <mxCell id="node7" value="&lt;p style=&quot;margin:0px;margin-top:4px;text-align:center;&quot;&gt;&lt;b&gt;OBORUD&lt;/b&gt;&lt;/p&gt;&lt;hr size=&quot;1&quot;&gt;&lt;p style=&quot;margin:0 0 0 4px;line-height:1.6;&quot;&gt; NAME: text&lt;br&gt; DOP: text&lt;br&gt; SKLAD: text&lt;br&gt; POST: text&lt;br&gt; TOVGR: text&lt;br&gt; NUM: integer&lt;br&gt; PRICE: integer&lt;/p&gt;&lt;hr size=&quot;1&quot;&gt;&lt;p style=&quot;margin:0 0 0 4px;line-height:1.6;&quot;&gt; ID: integer&lt;/p&gt;" style="verticalAlign=top;align=left;overflow=fill;fontSize=14;fontFamily=Helvetica;html=1;rounded=0;shadow=0;comic=0;labelBackgroundColor=none;strokeWidth=1;" parent="1" vertex="1">
          <mxGeometry x="-110" y="-1630" width="105" height="209" as="geometry" />
        </mxCell>
        <mxCell id="node12" value="&lt;p style=&quot;margin:0px;margin-top:4px;text-align:center;&quot;&gt;&lt;b&gt;TOVGR&lt;/b&gt;&lt;/p&gt;&lt;hr size=&quot;1&quot;/&gt;&lt;p style=&quot;margin:0 0 0 4px;line-height:1.6;&quot;&gt; NAME: text&lt;br/&gt; DOP: text&lt;/p&gt;&lt;hr size=&quot;1&quot;/&gt;&lt;p style=&quot;margin:0 0 0 4px;line-height:1.6;&quot;&gt; ID: integer&lt;/p&gt;" style="verticalAlign=top;align=left;overflow=fill;fontSize=14;fontFamily=Helvetica;html=1;rounded=0;shadow=0;comic=0;labelBackgroundColor=none;strokeWidth=1;" parent="1" vertex="1">
          <mxGeometry x="-130" y="-1319.5" width="90" height="130" as="geometry" />
        </mxCell>
        <mxCell id="node9" value="&lt;p style=&quot;margin:0px;margin-top:4px;text-align:center;&quot;&gt;&lt;b&gt;USR&lt;/b&gt;&lt;/p&gt;&lt;hr size=&quot;1&quot;/&gt;&lt;p style=&quot;margin:0 0 0 4px;line-height:1.6;&quot;&gt; name: varchar(100)&lt;br/&gt; pass: varchar(100)&lt;/p&gt;" style="verticalAlign=top;align=left;overflow=fill;fontSize=14;fontFamily=Helvetica;html=1;rounded=0;shadow=0;comic=0;labelBackgroundColor=none;strokeWidth=1;" parent="1" vertex="1">
          <mxGeometry x="-53.5" y="-1900" width="132" height="82" as="geometry" />
        </mxCell>
        <mxCell id="node16" value="&lt;p style=&quot;margin:0px;margin-top:4px;text-align:center;&quot;&gt;&lt;b&gt;ZAK&lt;/b&gt;&lt;/p&gt;&lt;hr size=&quot;1&quot;/&gt;&lt;p style=&quot;margin:0 0 0 4px;line-height:1.6;&quot;&gt; NAME: text&lt;br/&gt; ADDRES: text&lt;br/&gt; DOP: text&lt;/p&gt;&lt;hr size=&quot;1&quot;/&gt;&lt;p style=&quot;margin:0 0 0 4px;line-height:1.6;&quot;&gt; ID: integer&lt;/p&gt;" style="verticalAlign=top;align=left;overflow=fill;fontSize=14;fontFamily=Helvetica;html=1;rounded=0;shadow=0;comic=0;labelBackgroundColor=none;strokeWidth=1;" parent="1" vertex="1">
          <mxGeometry x="420" y="-1290.5" width="103" height="151" as="geometry" />
        </mxCell>
        <mxCell id="node0" value="&lt;p style=&quot;margin:0px;margin-top:4px;text-align:center;&quot;&gt;&lt;b&gt;ZAKAZ&lt;/b&gt;&lt;/p&gt;&lt;hr size=&quot;1&quot;/&gt;&lt;p style=&quot;margin:0 0 0 4px;line-height:1.6;&quot;&gt; TOVID: text&lt;br/&gt; NUM: integer&lt;br/&gt; SKLADID: text&lt;br/&gt; DT: text&lt;br/&gt; ZAKID: text&lt;br/&gt; STATUS: text&lt;/p&gt;&lt;hr size=&quot;1&quot;/&gt;&lt;p style=&quot;margin:0 0 0 4px;line-height:1.6;&quot;&gt; ID: integer&lt;/p&gt;" style="verticalAlign=top;align=left;overflow=fill;fontSize=14;fontFamily=Helvetica;html=1;rounded=0;shadow=0;comic=0;labelBackgroundColor=none;strokeWidth=1;" parent="1" vertex="1">
          <mxGeometry x="230" y="-1421" width="107" height="187" as="geometry" />
        </mxCell>
        <mxCell id="node15" value="&lt;p style=&quot;margin:0px;margin-top:4px;text-align:center;&quot;&gt;&lt;b&gt;usrl&lt;/b&gt;&lt;/p&gt;&lt;hr size=&quot;1&quot;/&gt;&lt;p style=&quot;margin:0 0 0 4px;line-height:1.6;&quot;&gt; name: varchar(100)&lt;/p&gt;" style="verticalAlign=top;align=left;overflow=fill;fontSize=14;fontFamily=Helvetica;html=1;rounded=0;shadow=0;comic=0;labelBackgroundColor=none;strokeWidth=1;" parent="1" vertex="1">
          <mxGeometry x="242" y="-1197.5" width="132" height="58" as="geometry" />
        </mxCell>
        <mxCell id="TkFKYON2OBY_uzW4y4lD-1" value="" style="endArrow=none;html=1;rounded=0;entryX=-0.019;entryY=0.199;entryDx=0;entryDy=0;entryPerimeter=0;exitX=1;exitY=0.25;exitDx=0;exitDy=0;" edge="1" parent="1" source="node7" target="node5">
          <mxGeometry width="50" height="50" relative="1" as="geometry">
            <mxPoint x="240" y="-1330" as="sourcePoint" />
            <mxPoint x="290" y="-1380" as="targetPoint" />
          </mxGeometry>
        </mxCell>
        <mxCell id="TkFKYON2OBY_uzW4y4lD-2" value="" style="endArrow=none;html=1;rounded=0;entryX=0.981;entryY=0.474;entryDx=0;entryDy=0;entryPerimeter=0;exitX=0;exitY=0.25;exitDx=0;exitDy=0;" edge="1" parent="1" source="node1" target="node7">
          <mxGeometry width="50" height="50" relative="1" as="geometry">
            <mxPoint x="240" y="-1330" as="sourcePoint" />
            <mxPoint x="290" y="-1380" as="targetPoint" />
          </mxGeometry>
        </mxCell>
        <mxCell id="TkFKYON2OBY_uzW4y4lD-3" value="" style="endArrow=none;html=1;rounded=0;entryX=1;entryY=0.75;entryDx=0;entryDy=0;exitX=-0.058;exitY=0.281;exitDx=0;exitDy=0;exitPerimeter=0;" edge="1" parent="1" source="node16" target="node0">
          <mxGeometry width="50" height="50" relative="1" as="geometry">
            <mxPoint x="240" y="-1270" as="sourcePoint" />
            <mxPoint x="290" y="-1320" as="targetPoint" />
          </mxGeometry>
        </mxCell>
        <mxCell id="TkFKYON2OBY_uzW4y4lD-4" value="" style="endArrow=none;html=1;rounded=0;entryX=1;entryY=0.75;entryDx=0;entryDy=0;exitX=0.019;exitY=0.118;exitDx=0;exitDy=0;exitPerimeter=0;" edge="1" parent="1" source="node0" target="node7">
          <mxGeometry width="50" height="50" relative="1" as="geometry">
            <mxPoint x="240" y="-1270" as="sourcePoint" />
            <mxPoint x="290" y="-1320" as="targetPoint" />
          </mxGeometry>
        </mxCell>
        <mxCell id="TkFKYON2OBY_uzW4y4lD-5" value="" style="endArrow=none;html=1;rounded=0;exitX=1;exitY=0.25;exitDx=0;exitDy=0;" edge="1" parent="1" source="node2" target="node13">
          <mxGeometry width="50" height="50" relative="1" as="geometry">
            <mxPoint x="240" y="-1510" as="sourcePoint" />
            <mxPoint x="290" y="-1560" as="targetPoint" />
          </mxGeometry>
        </mxCell>
        <mxCell id="TkFKYON2OBY_uzW4y4lD-6" value="" style="endArrow=none;html=1;rounded=0;entryX=0;entryY=0.25;entryDx=0;entryDy=0;exitX=0.985;exitY=0.415;exitDx=0;exitDy=0;exitPerimeter=0;" edge="1" parent="1" source="node9" target="node13">
          <mxGeometry width="50" height="50" relative="1" as="geometry">
            <mxPoint x="240" y="-1510" as="sourcePoint" />
            <mxPoint x="290" y="-1560" as="targetPoint" />
          </mxGeometry>
        </mxCell>
        <mxCell id="TkFKYON2OBY_uzW4y4lD-7" value="" style="endArrow=none;html=1;rounded=0;entryX=0;entryY=0.25;entryDx=0;entryDy=0;" edge="1" parent="1" source="node13" target="node4">
          <mxGeometry width="50" height="50" relative="1" as="geometry">
            <mxPoint x="240" y="-1510" as="sourcePoint" />
            <mxPoint x="290" y="-1560" as="targetPoint" />
          </mxGeometry>
        </mxCell>
        <mxCell id="TkFKYON2OBY_uzW4y4lD-8" value="" style="endArrow=none;html=1;rounded=0;entryX=0;entryY=0.25;entryDx=0;entryDy=0;" edge="1" parent="1" source="node13" target="node10">
          <mxGeometry width="50" height="50" relative="1" as="geometry">
            <mxPoint x="240" y="-1510" as="sourcePoint" />
            <mxPoint x="290" y="-1560" as="targetPoint" />
          </mxGeometry>
        </mxCell>
        <mxCell id="TkFKYON2OBY_uzW4y4lD-9" value="" style="endArrow=none;html=1;rounded=0;entryX=0.5;entryY=1;entryDx=0;entryDy=0;exitX=0.5;exitY=0;exitDx=0;exitDy=0;" edge="1" parent="1" source="node12" target="node7">
          <mxGeometry width="50" height="50" relative="1" as="geometry">
            <mxPoint x="240" y="-1360" as="sourcePoint" />
            <mxPoint x="290" y="-1410" as="targetPoint" />
          </mxGeometry>
        </mxCell>
        <mxCell id="TkFKYON2OBY_uzW4y4lD-10" value="" style="endArrow=none;html=1;rounded=0;" edge="1" parent="1" source="node8" target="node7">
          <mxGeometry width="50" height="50" relative="1" as="geometry">
            <mxPoint x="240" y="-1360" as="sourcePoint" />
            <mxPoint x="290" y="-1410" as="targetPoint" />
          </mxGeometry>
        </mxCell>
      </root>
    </mxGraphModel>
  </diagram>
</mxfile>
